<svg id="Capa_1" enable-background="new 0 0 512 512" height="512" viewBox="0 0 512 512" width="512" xmlns="http://www.w3.org/2000/svg" xmlns:xlink="http://www.w3.org/1999/xlink"><linearGradient id="lg1"><stop offset="0" stop-color="#ff4747"/><stop offset="1" stop-color="#fff200"/></linearGradient><linearGradient id="SVGID_1_" gradientUnits="userSpaceOnUse" x1="74.981" x2="437.02" xlink:href="#lg1" y1="437.019" y2="74.98"/><radialGradient id="SVGID_2_" cx="256.001" cy="256" gradientUnits="userSpaceOnUse" r="258.6"><stop offset="0" stop-color="#ff4747" stop-opacity=".6"/><stop offset="1" stop-color="#fff200" stop-opacity="0"/></radialGradient><linearGradient id="lg2"><stop offset="0" stop-color="#ffcb00"/><stop offset="1" stop-color="#fffa78"/></linearGradient><linearGradient id="SVGID_3_" gradientUnits="userSpaceOnUse" x1="-79.42" x2="435.072" xlink:href="#lg2" y1="591.419" y2="76.928"/><linearGradient id="SVGID_4_" gradientUnits="userSpaceOnUse" x1="122.096" x2="526.717" xlink:href="#lg2" y1="389.904" y2="-14.717"/><linearGradient id="SVGID_5_" gradientUnits="userSpaceOnUse" x1="-67.939" x2="460.097" xlink:href="#lg1" y1="579.939" y2="51.904"/><linearGradient id="SVGID_6_" gradientUnits="userSpaceOnUse" x1="109.831" x2="337.521" y1="402.169" y2="174.479"><stop offset="0" stop-color="#fffa78"/><stop offset="1" stop-color="#fff"/></linearGradient><linearGradient id="SVGID_7_" gradientUnits="userSpaceOnUse" x1="120.784" x2="368.591" y1="391.804" y2="143.997"><stop offset="0" stop-color="#fff200"/><stop offset="1" stop-color="#fff"/></linearGradient><g><circle cx="256" cy="256" fill="url(#SVGID_1_)" r="256"/><circle cx="256" cy="256" fill="url(#SVGID_2_)" r="256"/><path d="m262.396 58.769c10.078 16.795 32.618 20.527 47.134 7.967 4.22-3.659 10.848-1.369 12.251 4.212 4.781 19.177 25.289 29.915 43.066 22.843 5.163-2.058 10.912 2.223 10.608 7.875-1.079 19.458 15.42 35.958 34.878 34.878 5.653-.304 9.931 5.446 7.875 10.608-7.072 17.777 3.665 38.285 22.843 43.066 5.579 1.403 7.871 8.032 4.212 12.251-12.559 14.516-8.828 37.055 7.967 47.134 4.892 2.939 4.892 9.855 0 12.793-16.795 10.078-20.526 32.618-7.967 47.134 3.659 4.22 1.368 10.847-4.211 12.251-19.178 4.781-29.915 25.29-22.843 43.066 2.056 5.162-2.222 10.913-7.875 10.608-19.458-1.08-35.957 15.42-34.878 34.878.304 5.652-5.446 9.931-10.608 7.875-17.777-7.072-38.285 3.666-43.066 22.843-1.403 5.58-8.031 7.871-12.251 4.211-14.516-12.559-37.056-8.828-47.134 7.967-2.939 4.892-9.854 4.892-12.793 0-10.078-16.795-32.618-20.526-47.134-7.967-4.22 3.66-10.847 1.368-12.251-4.211-4.781-19.178-25.289-29.916-43.066-22.844-5.162 2.055-10.912-2.221-10.608-7.875 1.079-19.457-15.42-35.956-34.878-34.878-5.653.304-9.931-5.444-7.875-10.608 7.072-17.776-3.665-38.285-22.843-43.066-5.579-1.403-7.871-8.032-4.212-12.251 12.559-14.518 8.828-37.056-7.967-47.134-4.892-2.939-4.892-9.855 0-12.793 16.795-10.077 20.525-32.619 7.967-47.134-3.659-4.219-1.368-10.848 4.211-12.251 19.179-4.781 29.915-25.288 22.843-43.066-2.056-5.164 2.222-10.912 7.875-10.608 19.458 1.078 35.957-15.421 34.878-34.878-.304-5.653 5.445-9.933 10.608-7.875 17.777 7.073 38.285-3.664 43.066-22.843 1.403-5.579 8.031-7.871 12.251-4.212 14.516 12.558 37.056 8.828 47.134-7.967 2.939-4.891 9.855-4.891 12.793.001z" fill="url(#SVGID_3_)"/><circle cx="256" cy="256" fill="url(#SVGID_4_)" r="153.75"/><path d="m379 256c-.129 67.045-55.955 122.873-123 123-67.045-.131-122.871-55.953-123-123 .129-67.046 55.955-122.871 123-123 67.045.129 122.871 55.954 123 123z" fill="url(#SVGID_5_)"/><path d="m348.25 256c-.054 50.574-41.675 92.195-92.25 92.25-50.575-.053-92.196-41.676-92.25-92.25.054-50.575 41.675-92.196 92.25-92.25 50.574.055 92.196 41.674 92.25 92.25z" fill="url(#SVGID_6_)"/><path d="m271.34 317.492c-50.754.018-92.293-41.458-92.171-92.132.025-8.672 1.266-17.066 3.554-25.035-11.87 15.518-18.975 34.788-18.973 55.675.054 50.574 41.675 92.195 92.25 92.25 41.965-.01 77.675-28.712 88.757-67.263-16.92 22.052-43.549 36.47-73.417 36.505z" fill="url(#SVGID_7_)"/></g></svg>